<svg xmlns="http://www.w3.org/2000/svg" xmlns:xlink="http://www.w3.org/1999/xlink" width="900" zoomAndPan="magnify" viewBox="0 0 675 675.000002" height="900" preserveAspectRatio="xMidYMid meet" version="1.0"><defs><g/></defs><g fill="#5ce1e6" fill-opacity="1"><g transform="translate(254.836892, 362.732683)"><g/></g></g><g fill="#ffa7e4" fill-opacity="1"><g transform="translate(156.957051, 419.327662)"><g><path d="M 39.5625 -93.660156 C 20.644531 -93.660156 1.960938 -78.433594 1.960938 -59.402344 L 1.960938 -33.101562 C 1.960938 -13.378906 20.644531 1.960938 39.5625 1.960938 C 58.941406 1.960938 77.164062 -13.378906 77.164062 -33.101562 L 77.164062 -59.402344 C 77.164062 -78.433594 58.941406 -93.660156 39.5625 -93.660156 Z M 47.289062 -34.257812 C 47.289062 -30.335938 43.714844 -26.875 39.5625 -26.875 C 35.292969 -26.875 31.949219 -30.335938 31.949219 -34.257812 L 31.949219 -57.324219 C 31.949219 -61.476562 35.292969 -64.9375 39.5625 -64.9375 C 43.714844 -64.9375 47.289062 -61.476562 47.289062 -57.324219 Z M 47.289062 -34.257812 "/></g></g></g><path stroke-linecap="butt" transform="matrix(0.601872, 0, 0, 0.601872, -18.81093, 324.359796)" fill="none" stroke-linejoin="miter" d="M 364.361971 -2.616238 C 332.917102 -2.616238 301.900584 22.695422 301.900584 54.328506 L 301.900584 97.981383 C 301.900584 130.776207 332.917102 156.276081 364.361971 156.276081 C 396.55321 156.276081 426.823358 130.776207 426.823358 97.981383 L 426.823358 54.328506 C 426.823358 22.695422 396.55321 -2.616238 364.361971 -2.616238 Z M 377.180055 96.060292 C 377.180055 102.608873 371.24155 108.365653 364.361971 108.365653 C 357.248746 108.365653 351.725612 102.608873 351.725612 96.060292 L 351.725612 57.742334 C 351.725612 50.862755 357.248746 45.105975 364.361971 45.105975 C 371.24155 45.105975 377.180055 50.862755 377.180055 57.742334 Z M 377.180055 96.060292 " stroke="#ff66c4" stroke-width="3.114264" stroke-opacity="1" stroke-miterlimit="4"/><g fill="#5ce1e6" fill-opacity="1"><g transform="translate(70.154525, 389.842556)"><g><path d="M 43.136719 -92.160156 L 12.109375 -92.160156 C 7.265625 -92.160156 3.804688 -88.121094 3.804688 -83.855469 L 3.804688 -8.765625 C 3.804688 -4.613281 7.265625 -0.347656 12.109375 -0.347656 L 43.136719 -0.347656 C 61.246094 -0.347656 75.089844 -14.996094 75.089844 -32.410156 L 75.089844 -60.207031 C 75.089844 -77.625 61.246094 -92.160156 43.136719 -92.160156 Z M 46.945312 -43.484375 C 46.945312 -38.640625 43.367188 -35.292969 38.640625 -35.292969 L 33.101562 -35.292969 C 32.296875 -35.292969 31.488281 -35.871094 31.488281 -37.253906 L 31.488281 -55.25 C 31.488281 -56.75 32.296875 -57.441406 33.101562 -57.441406 L 38.640625 -57.441406 C 43.367188 -57.441406 46.945312 -53.980469 46.945312 -49.019531 Z M 46.945312 -43.484375 "/></g></g></g><path stroke-linecap="butt" transform="matrix(0.601872, 0, 0, 0.601872, -106.187119, 294.87469)" fill="none" stroke-linejoin="miter" d="M 371.256506 -0.135778 L 319.698603 -0.135778 C 311.650794 -0.135778 305.894014 6.601017 305.894014 13.668811 L 305.894014 138.448801 C 305.894014 145.32838 311.650794 152.441606 319.698603 152.441606 L 371.256506 152.441606 C 401.338439 152.441606 424.313638 128.109962 424.313638 99.150828 L 424.313638 52.966785 C 424.313638 24.00765 401.338439 -0.135778 371.256506 -0.135778 Z M 377.57144 80.757688 C 377.57144 88.805498 371.632936 94.374063 363.766851 94.374063 L 354.602732 94.374063 C 353.239797 94.374063 351.883351 93.394048 351.883351 91.103018 L 351.883351 61.202809 C 351.883351 58.723565 353.239797 57.555334 354.602732 57.555334 L 363.766851 57.555334 C 371.632936 57.555334 377.57144 63.312114 377.57144 71.541648 Z M 377.57144 80.757688 " stroke="#b2edef" stroke-width="3.114264" stroke-opacity="1" stroke-miterlimit="4"/><g fill="#5ce1e6" fill-opacity="1"><g transform="translate(241.989377, 389.842556)"><g><path d="M 71.167969 -92.160156 L 56.632812 -92.160156 C 52.136719 -92.160156 48.214844 -88.46875 48.214844 -83.855469 L 48.214844 -56.75 L 34.71875 -86.738281 C 33.449219 -89.96875 30.335938 -92.160156 26.757812 -92.160156 L 12.226562 -92.160156 C 7.613281 -92.160156 3.804688 -88.46875 3.804688 -83.855469 L 3.804688 -6.804688 C 3.804688 -2.191406 7.613281 1.5 12.226562 1.5 L 26.757812 1.5 C 31.488281 1.5 35.179688 -2.191406 35.179688 -6.804688 L 35.179688 -32.757812 L 48.675781 -4.152344 C 50.058594 -0.921875 52.941406 1.5 56.632812 1.5 L 71.167969 1.5 C 75.894531 1.5 79.585938 -2.191406 79.585938 -6.804688 L 79.585938 -83.855469 C 79.585938 -88.46875 75.894531 -92.160156 71.167969 -92.160156 Z M 71.167969 -92.160156 "/></g></g></g><path stroke-linecap="butt" transform="matrix(0.601872, 0, 0, 0.601872, 68.356154, 294.87469)" fill="none" stroke-linejoin="miter" d="M 413.312297 -0.135778 L 389.168868 -0.135778 C 381.679213 -0.135778 375.176064 5.997431 375.176064 13.668811 L 375.176064 58.723565 L 352.76551 8.898537 C 350.662695 3.518187 345.47056 -0.135778 339.525565 -0.135778 L 315.382137 -0.135778 C 307.710757 -0.135778 301.395822 5.997431 301.395822 13.668811 L 301.395822 141.674415 C 301.395822 149.352285 307.710757 155.479005 315.382137 155.479005 L 339.525565 155.479005 C 347.38516 155.479005 353.51837 149.352285 353.51837 141.674415 L 353.51837 98.586183 L 375.974355 146.120181 C 378.265384 151.4551 383.035659 155.479005 389.168868 155.479005 L 413.312297 155.479005 C 421.171892 155.479005 427.298611 149.352285 427.298611 141.674415 L 427.298611 13.668811 C 427.298611 5.997431 421.171892 -0.135778 413.312297 -0.135778 Z M 413.312297 -0.135778 " stroke="#b2edef" stroke-width="3.114264" stroke-opacity="1" stroke-miterlimit="4"/><g fill="#ffa7e4" fill-opacity="1"><g transform="translate(336.59768, 363.067847)"><g><path d="M 70.242188 -92.042969 L 52.019531 -92.042969 C 48.328125 -92.042969 45.328125 -88.8125 45.328125 -85.121094 L 45.328125 -32.757812 C 45.328125 -29.988281 43.023438 -27.796875 40.253906 -27.796875 C 37.601562 -27.796875 35.292969 -29.988281 35.292969 -32.757812 L 35.292969 -87.777344 C 35.292969 -90.082031 33.449219 -91.929688 31.257812 -91.929688 L 5.996094 -91.929688 C 3.804688 -91.929688 1.960938 -90.082031 1.960938 -87.777344 L 1.960938 -32.988281 C 1.960938 -13.609375 20.070312 2.191406 39.445312 2.191406 C 58.480469 2.191406 76.242188 -12.6875 77.050781 -31.488281 L 77.050781 -85.121094 C 77.050781 -88.8125 73.933594 -92.042969 70.242188 -92.042969 Z M 70.242188 -92.042969 "/></g></g></g><path stroke-linecap="butt" transform="matrix(0.601872, 0, 0, 0.601872, 160.77328, 268.099983)" fill="none" stroke-linejoin="miter" d="M 415.403532 0.0545459 L 385.133383 0.0545459 C 379.006664 0.0545459 374.048174 5.434896 374.048174 11.561616 L 374.048174 98.588292 C 374.048174 103.170352 370.212485 106.824317 365.623935 106.824317 C 361.178169 106.824317 357.342479 103.170352 357.342479 98.588292 L 357.342479 7.167771 C 357.342479 3.325591 354.29859 0.242761 350.651115 0.242761 L 308.685682 0.242761 C 305.038207 0.242761 301.994318 3.325591 301.994318 7.167771 L 301.994318 98.211862 C 301.994318 130.403101 332.076251 156.649345 364.26749 156.649345 C 395.894083 156.649345 425.372431 131.89584 426.728877 100.691107 L 426.728877 11.561616 C 426.728877 5.434896 421.582172 0.0545459 415.403532 0.0545459 Z M 415.403532 0.0545459 " stroke="#ff66c4" stroke-width="3.114264" stroke-opacity="1" stroke-miterlimit="4"/><g fill="#5ce1e6" fill-opacity="1"><g transform="translate(421.449288, 391.881908)"><g><path d="M 77.28125 -92.273438 L 11.878906 -92.273438 C 7.496094 -92.273438 3.804688 -88.699219 3.804688 -84.199219 L 3.804688 -68.398438 C 3.804688 -64.015625 7.496094 -60.324219 11.878906 -60.324219 L 27.796875 -60.324219 C 28.257812 -60.324219 28.605469 -59.863281 28.605469 -59.515625 L 28.605469 -7.84375 C 28.605469 -3.460938 32.179688 0.230469 36.792969 0.230469 L 52.480469 0.230469 C 56.863281 0.230469 60.554688 -3.460938 60.554688 -7.84375 L 60.554688 -59.515625 C 60.554688 -59.863281 61.015625 -60.324219 61.476562 -60.324219 L 77.28125 -60.324219 C 81.664062 -60.324219 85.355469 -64.015625 85.355469 -68.398438 L 85.355469 -84.199219 C 85.355469 -88.699219 81.664062 -92.273438 77.28125 -92.273438 Z M 77.28125 -92.273438 "/></g></g></g><path stroke-linecap="butt" transform="matrix(0.601872, 0, 0, 0.601872, 250.703167, 296.914042)" fill="none" stroke-linejoin="miter" d="M 418.667755 -0.324475 L 310.022325 -0.324475 C 302.727375 -0.324475 296.600656 5.62052 296.600656 13.103685 L 296.600656 39.356419 C 296.600656 46.651369 302.727375 52.784578 310.022325 52.784578 L 336.463274 52.784578 C 337.255075 52.784578 337.819719 53.530948 337.819719 54.089102 L 337.819719 139.947549 C 337.819719 147.242499 343.758224 153.375708 351.429604 153.375708 L 377.494123 153.375708 C 384.743641 153.375708 390.870361 147.242499 390.870361 139.947549 L 390.870361 54.089102 C 390.870361 53.530948 391.668652 52.784578 392.415021 52.784578 L 418.667755 52.784578 C 425.962705 52.784578 432.095915 46.651369 432.095915 39.356419 L 432.095915 13.103685 C 432.095915 5.62052 425.962705 -0.324475 418.667755 -0.324475 Z M 418.667755 -0.324475 " stroke="#b2edef" stroke-width="3.114264" stroke-opacity="1" stroke-miterlimit="4"/><g fill="#ffa7e4" fill-opacity="1"><g transform="translate(518.131208, 341.087618)"><g><path d="M 40.371094 -96.425781 C 38.984375 -96.425781 1.960938 -98.386719 1.960938 -66.320312 C 1.960938 -46.253906 16.492188 -34.71875 35.988281 -34.71875 L 42.90625 -34.71875 C 46.714844 -34.71875 49.828125 -32.410156 49.828125 -28.605469 C 49.828125 -24.914062 46.714844 -22.261719 43.484375 -22.261719 C 41.640625 -22.261719 38.523438 -22.835938 37.371094 -27.453125 C 37.023438 -28.375 36.5625 -28.949219 34.832031 -28.605469 L 3.921875 -24.914062 C 2.191406 -24.566406 1.84375 -23.414062 2.769531 -21.683594 C 7.496094 -8.535156 15.917969 4.152344 44.753906 4.152344 C 59.285156 4.152344 77.625 -3.804688 77.625 -29.183594 C 77.625 -60.441406 50.058594 -58.132812 40.371094 -58.132812 C 37.371094 -58.132812 31.605469 -58.824219 31.605469 -64.359375 C 31.605469 -68.859375 35.410156 -70.820312 37.949219 -70.820312 C 39.792969 -70.820312 42.90625 -69.4375 44.0625 -66.320312 C 44.523438 -64.9375 45.558594 -64.359375 46.714844 -64.359375 L 74.972656 -68.28125 C 76.242188 -68.398438 77.164062 -69.667969 76.816406 -71.398438 C 75.550781 -77.625 70.011719 -96.425781 40.371094 -96.425781 Z M 40.371094 -96.425781 "/></g></g></g><path stroke-linecap="butt" transform="matrix(0.601872, 0, 0, 0.601872, 342.598322, 246.119754)" fill="none" stroke-linejoin="miter" d="M 365.324019 -7.201862 C 362.987558 -7.201862 301.512677 -10.472907 301.512677 42.817871 C 301.512677 76.17734 325.649615 95.310358 358.029069 95.310358 L 369.536138 95.310358 C 375.851073 95.310358 380.997777 99.146048 380.997777 105.467473 C 380.997777 111.594192 375.851073 115.994527 370.470723 115.994527 C 367.433324 115.994527 362.241188 115.053452 360.320098 107.382072 C 359.761944 105.837412 358.963653 104.902828 356.107979 105.467473 L 304.738291 111.594192 C 301.882616 112.204268 301.324462 114.118868 302.817201 116.974542 C 310.676795 138.820451 324.6696 159.87456 372.580028 159.87456 C 396.723456 159.87456 427.227251 146.686536 427.227251 104.526398 C 427.227251 52.592065 381.419638 56.434245 365.324019 56.434245 C 360.320098 56.434245 350.727628 55.259525 350.727628 46.043485 C 350.727628 38.605751 357.042563 35.328216 361.306604 35.328216 C 364.344003 35.328216 369.536138 37.625736 371.457228 42.817871 C 372.203598 45.1089 373.936473 46.043485 375.851073 46.043485 L 422.781485 39.540335 C 424.8843 39.352121 426.42896 37.249306 425.870806 34.393631 C 423.761501 24.009361 414.545461 -7.201862 365.324019 -7.201862 Z M 365.324019 -7.201862 " stroke="#ff66c4" stroke-width="3.114264" stroke-opacity="1" stroke-miterlimit="4"/></svg>